<?xml version="1.0" encoding="utf-8"?>
<!-- Svg Vector Icons : http://www.onlinewebfonts.com/icon -->
<!DOCTYPE svg PUBLIC "-//W3C//DTD SVG 1.1//EN" "http://www.w3.org/Graphics/SVG/1.1/DTD/svg11.dtd">
<svg version="1.1" xmlns="http://www.w3.org/2000/svg" xmlns:xlink="http://www.w3.org/1999/xlink" x="0px" y="0px" viewBox="0 0 1000 1000" enable-background="new 0 0 1000 1000" xml:space="preserve">
<metadata> Svg Vector Icons : http://www.onlinewebfonts.com/icon </metadata>
<g><g transform="translate(0.000000,511.000000) scale(0.100000,-0.100000)"><path fill="white" d="M1118.1,2248.9c-276.7-72.6-475-192.3-667.3-402.3C42.6,1401.1-14.3,749.5,309.6,233.3l76.5-123.6L309.6-12C-16.2-532.1,42.6-1179.7,452.8-1629.1c549.5-600.6,1477.8-580.9,2013.6,39.2c88.3,100.1,208,306.2,227.7,390.5l13.7,53h2294.3c1925.3,0,2294.3-3.9,2294.3-27.5c0-51,137.4-296.4,223.8-402.3c123.6-151.1,274.8-268.9,453.3-355.2c747.7-361.1,1627,27.5,1870.3,824.3c111.9,365,55,761.5-155,1097.1l-78.5,123.6l70.6,104c149.2,225.7,213.9,447.5,213.9,736c0,341.5-117.8,643.7-349.4,896.9c-402.3,439.6-1038.2,561.3-1570.1,302.2c-182.5-90.3-331.7-206.1-455.3-357.2c-86.4-106-223.8-351.3-223.8-402.3c0-23.5-369-27.5-2294.3-27.5H2707.8l-13.7,54.9c-5.9,29.4-43.2,107.9-80.5,174.7c-239.4,429.8-694.8,694.8-1189.3,690.8C1330.1,2286.2,1200.6,2270.5,1118.1,2248.9z M1642.1,1846.6c343.5-82.4,606.4-341.5,696.7-688.9c19.6-74.6,47.1-131.5,80.5-159l51-45.1h2529.8h2529.8l51,45.1c33.4,27.5,60.8,84.4,80.5,160.9c121.7,471,586.8,781.1,1048,698.7c343.5-62.8,612.3-296.3,728.1-632c35.3-106,39.2-157,33.4-323.8c-7.8-168.8-17.7-215.9-68.7-323.8c-31.4-70.7-107.9-182.5-168.8-249.2c-168.8-190.4-166.8-255.1,7.8-447.5c55-60.8,127.6-168.8,160.9-239.4c51-109.9,60.8-157,68.7-325.8c5.9-166.8,2-217.9-35.3-323.8c-113.8-339.5-392.5-577-741.9-632c-459.3-74.6-910.6,231.6-1032.3,698.7c-19.6,76.6-47.1,133.5-80.5,162.9l-51,43.2H5000.1H2470.4l-51-43.2c-33.4-29.4-60.8-86.3-80.5-160.9c-121.7-469.1-573.1-775.2-1032.3-700.6c-351.3,56.9-628,290.5-741.9,630c-35.3,106-41.2,160.9-35.3,325.8c5.9,180.5,11.8,210,78.5,343.5c41.2,80.5,117.8,192.3,170.7,251.2C933.6,78.3,931.7,147,759,337.4c-55,60.8-127.6,170.7-160.9,241.4c-53,111.9-62.8,157-68.7,325.8c-5.9,162.9,0,217.9,35.3,323.8c106,316,359.2,549.5,673.2,618.2C1398.8,1881.9,1491,1881.9,1642.1,1846.6z"/></g></g>
</svg>